<svg width="19" height="20" viewBox="0 0 19 20" fill="none" xmlns="http://www.w3.org/2000/svg">
<g id="Group">
<g id="Group_2">
<path id="Vector" d="M9.48901 0.430176C9.14844 0.430176 8.80811 0.448484 8.46948 0.484983C8.1591 0.516686 7.85253 0.568679 7.55008 0.631768C7.49155 0.644014 7.43298 0.656933 7.37445 0.670446C5.59245 1.07617 3.96529 1.98728 2.68809 3.29452C2.56932 3.41626 2.45305 3.54161 2.33935 3.67052C-1.11075 7.63136 -0.696703 13.6391 3.26417 17.0892C7.05619 20.3922 12.7641 20.1725 16.291 16.5877C16.41 16.4659 16.5262 16.3406 16.6397 16.2117C18.1623 14.4777 19.0013 12.2486 19 9.94109C19 4.68831 14.7418 0.430136 9.48901 0.430176ZM3.11069 3.77007C3.16078 3.71807 3.21277 3.6683 3.26382 3.61789C3.32278 3.55988 3.38143 3.50154 3.44167 3.44543C3.49461 3.39597 3.54914 3.34841 3.60336 3.30023C3.66454 3.24601 3.72541 3.1918 3.78819 3.13949C3.84335 3.09289 3.9001 3.04819 3.95653 3.00317C4.01994 2.95244 4.08334 2.90172 4.14865 2.85289C4.20635 2.80946 4.265 2.7673 4.32397 2.72608C4.3896 2.67916 4.45554 2.63097 4.52243 2.58722C4.58235 2.54664 4.6429 2.50733 4.70377 2.46833C4.77162 2.4249 4.83978 2.3821 4.90858 2.34152C4.97052 2.30455 5.03285 2.26817 5.09562 2.23246C5.16581 2.19252 5.23627 2.15352 5.30709 2.11548C5.37049 2.08167 5.4339 2.04858 5.4973 2.01625C5.56959 1.97979 5.6425 1.9446 5.71574 1.91004C5.77915 1.87992 5.84509 1.84981 5.9104 1.82127C5.9849 1.78957 6.06035 1.75787 6.13581 1.72616C6.20143 1.69921 6.26674 1.6729 6.333 1.64754C6.40972 1.61837 6.48739 1.59111 6.56507 1.56384C6.63133 1.5407 6.69759 1.51756 6.7648 1.49568C6.84374 1.47032 6.92331 1.44686 7.0032 1.42371C7.0701 1.40438 7.13636 1.3844 7.20357 1.36633C7.22925 1.35967 7.25493 1.35428 7.28061 1.34763C6.34219 2.25882 5.64579 3.38967 5.25446 4.63778C4.50198 4.43932 3.77352 4.15899 3.08216 3.80177C3.09262 3.79067 3.1015 3.77958 3.11069 3.77007ZM2.6548 4.28049C3.41635 4.69311 4.22391 5.0145 5.06075 5.23793C4.65051 6.66441 4.43517 8.13984 4.42066 9.62406H0.619454C0.688528 7.66683 1.40427 5.7877 2.6548 4.28049ZM2.6548 15.6017C1.40435 14.0944 0.688607 12.2153 0.619454 10.2581H4.42066C4.43517 11.7423 4.65047 13.2178 5.06075 14.6443C4.22395 14.8678 3.41639 15.1891 2.6548 15.6017ZM7.20167 18.5171C7.13763 18.501 7.07137 18.48 7.00542 18.4607C6.92521 18.4372 6.84469 18.4138 6.76543 18.3881C6.69854 18.3665 6.6326 18.3434 6.56665 18.3202C6.48866 18.2933 6.41067 18.2657 6.33363 18.2362C6.26769 18.2112 6.2027 18.1849 6.13739 18.1582C6.06162 18.1265 5.98585 18.0948 5.91071 18.0631C5.84604 18.0346 5.78168 18.0052 5.71764 17.975C5.64377 17.9401 5.57022 17.9046 5.49572 17.8678C5.43231 17.8361 5.36891 17.8044 5.3055 17.7699C5.23385 17.7315 5.16284 17.6922 5.09182 17.6516C5.02841 17.6164 4.96818 17.5803 4.90699 17.5435C4.83724 17.5017 4.76877 17.4586 4.70029 17.4145C4.64005 17.3761 4.57981 17.3371 4.52053 17.2972C4.453 17.2515 4.38611 17.204 4.31985 17.1564C4.26183 17.1149 4.20381 17.0734 4.14675 17.0296C4.08112 16.9802 4.01677 16.9291 3.95273 16.8778C3.89661 16.833 3.84081 16.7887 3.78597 16.7427C3.72256 16.6901 3.66137 16.6352 3.59987 16.5807C3.54597 16.5328 3.49176 16.4856 3.43913 16.4368C3.37858 16.3803 3.31993 16.3217 3.26096 16.2637C3.20992 16.2133 3.15793 16.1635 3.10784 16.1118C3.09864 16.102 3.08977 16.0918 3.08057 16.0823C3.7719 15.7249 4.50036 15.4445 5.25287 15.246C5.64429 16.4941 6.34065 17.6249 7.27902 18.5361C7.25334 18.5295 7.22735 18.5241 7.20167 18.5171ZM9.17202 18.7929C7.81544 18.6002 6.62625 17.1843 5.87806 15.0935C6.95977 14.8513 8.06364 14.7213 9.17202 14.7058V18.7929ZM9.17202 14.0717C7.99623 14.0872 6.82539 14.2268 5.67896 14.4883C5.28089 13.1129 5.0709 11.6899 5.05473 10.2581H9.17202V14.0717ZM9.17202 9.62406H5.05473C5.07086 8.19231 5.28085 6.76931 5.67896 5.3939C6.82539 5.65534 7.99627 5.79499 9.17202 5.81048V9.62406ZM9.17202 5.17642C8.0636 5.16097 6.95977 5.03102 5.87806 4.78869C6.62625 2.69787 7.81544 1.282 9.17202 1.08925V5.17642ZM16.3233 4.28049C17.5738 5.78774 18.2895 7.66686 18.3586 9.62406H14.5574C14.5429 8.13984 14.3276 6.66441 13.9174 5.23793C14.7542 5.01438 15.5617 4.69303 16.3233 4.28049ZM11.7739 1.36475C11.8405 1.38123 11.9067 1.40216 11.9727 1.4215C12.0529 1.44496 12.1334 1.46842 12.2127 1.4941C12.2796 1.51565 12.3455 1.5388 12.4114 1.56194C12.4894 1.58889 12.5674 1.61647 12.6445 1.64595C12.7104 1.671 12.7754 1.69731 12.8407 1.72394C12.9165 1.75565 12.9923 1.78735 13.0674 1.81905C13.1321 1.84759 13.1964 1.87695 13.2605 1.90719C13.3343 1.94206 13.4079 1.97757 13.4824 2.01434C13.5458 2.04605 13.6092 2.07775 13.6726 2.11231C13.7443 2.15067 13.8153 2.18998 13.8863 2.23056C13.9497 2.26575 14.0099 2.30189 14.0711 2.33867C14.1409 2.38052 14.2093 2.42363 14.2778 2.4677C14.3381 2.50606 14.3983 2.54506 14.4576 2.585C14.5251 2.63065 14.5917 2.67789 14.6579 2.72545C14.7163 2.76698 14.7743 2.80883 14.8317 2.85226C14.897 2.9014 14.961 2.95244 15.0254 3.0038C15.0812 3.04819 15.1373 3.09257 15.1921 3.13886C15.2555 3.19148 15.3167 3.24633 15.3782 3.30086C15.4321 3.34873 15.4863 3.39597 15.539 3.44479C15.5995 3.50122 15.6582 3.55988 15.7171 3.61789C15.7682 3.6683 15.8202 3.71807 15.8703 3.76975C15.8795 3.77958 15.8883 3.78972 15.8975 3.79923C15.2062 4.15661 14.4777 4.43706 13.7252 4.63556C13.3331 3.38733 12.6358 2.2566 11.6965 1.34572C11.7222 1.35238 11.7482 1.35777 11.7739 1.36475ZM9.80608 1.08925C11.1627 1.282 12.3518 2.69787 13.1 4.78869C12.0183 5.0309 10.9145 5.16085 9.80608 5.17642V1.08925ZM9.80608 5.81048C10.9819 5.79503 12.1527 5.65538 13.2991 5.3939C13.6972 6.76931 13.9072 8.19231 13.9234 9.62406H9.80608V5.81048ZM9.80608 10.2581H13.9234C13.9072 11.6899 13.6973 13.1129 13.2991 14.4883C12.1527 14.2269 10.9819 14.0872 9.80608 14.0717V10.2581ZM9.80608 18.7929V14.7058C10.9145 14.7212 12.0183 14.8512 13.1 15.0935C12.3518 17.1843 11.1627 18.6002 9.80608 18.7929ZM15.8674 16.1121C15.8173 16.1638 15.7656 16.2136 15.7146 16.264C15.6556 16.322 15.5967 16.3806 15.5361 16.4371C15.4835 16.4862 15.4293 16.5322 15.3754 16.5813C15.3139 16.6359 15.2527 16.6904 15.1899 16.743C15.1344 16.7893 15.078 16.834 15.0216 16.879C14.9582 16.9297 14.8948 16.9805 14.8295 17.0293C14.7718 17.0727 14.7131 17.1149 14.6541 17.1561C14.5885 17.203 14.5226 17.2512 14.4557 17.295C14.3958 17.3355 14.3352 17.3749 14.2743 17.4135C14.2065 17.4573 14.1381 17.4996 14.0692 17.5403C14.0058 17.5774 13.9452 17.6136 13.8828 17.6494C13.8126 17.6894 13.742 17.7283 13.671 17.7664C13.6076 17.8002 13.5442 17.8333 13.4808 17.8656C13.4085 17.9021 13.3356 17.9373 13.2624 17.9718C13.199 18.0019 13.133 18.0321 13.0677 18.0606C12.9932 18.0923 12.9177 18.124 12.8423 18.1557C12.7767 18.1823 12.7114 18.209 12.6454 18.234C12.5681 18.2635 12.4904 18.2911 12.4124 18.318C12.3465 18.3412 12.2805 18.3643 12.2136 18.3859C12.1344 18.4116 12.0551 18.435 11.9743 18.4582C11.908 18.4778 11.8414 18.4975 11.7745 18.5155C11.7489 18.5222 11.7232 18.5276 11.6975 18.5342C12.6359 17.6231 13.3323 16.4922 13.7236 15.2441C14.4761 15.4425 15.2046 15.7229 15.8959 16.0801C15.8855 16.0915 15.8766 16.1026 15.8674 16.1121ZM16.3233 15.6017C15.5618 15.1891 14.7542 14.8677 13.9174 14.6443C14.3276 13.2178 14.5429 11.7423 14.5574 10.2581H18.3586C18.2896 12.2153 17.5738 14.0945 16.3233 15.6017Z" fill="white"/>
</g>
</g>
</svg>
